<?xml version="1.0" encoding="UTF-8"?>
<svg xmlns="http://www.w3.org/2000/svg" width="150" height="60" viewBox="0 0 150 60" fill="none">
  <g clip-path="url(#clip0_1512_41399)">
    <g clip-path="url(#clip1_1512_41399)">
      <mask id="mask0_1512_41399" style="mask-type:luminance" maskUnits="userSpaceOnUse" x="8" y="-1" width="135" height="60">
        <path d="M143 -1H8V59H143V-1Z" fill="white"></path>
      </mask>
      <g mask="url(#mask0_1512_41399)">
        <g opacity="0.7">
          <path opacity="0.7" d="M74.4061 50.915H72.2454L67.6484 39.4884H69.8075L73.3258 48.0212L76.8423 39.4884H79.0014L74.4061 50.915ZM80.8539 39.4884H82.7844V50.915H80.8539V39.4884ZM94.2031 39.4884V41.3028H88.0998V44.3282H93.5816V46.0442H88.0998V49.1006H94.3987V50.9167H86.1693V39.4901L94.2031 39.4884ZM100.649 47.7116L103.201 39.4901H104.936L107.488 47.7116L110.368 39.4901H112.445L108.453 50.9167H106.54L104.134 43.0862H104.003L101.598 50.9167H99.6847L95.6921 39.4901H97.7698L100.649 47.7116ZM122.472 39.4884V41.3028H116.37V44.3282H121.85V46.0442H116.37V49.1006H122.669V50.9167H114.44V39.4901L122.472 39.4884ZM134.479 43.1987C134.479 45.0842 133.659 46.2723 132.01 46.7636L135.004 50.915H132.549L129.818 47.0715H127.282V50.915H125.351V39.4884H129.605C131.351 39.4884 132.599 39.7824 133.35 40.3723C134.104 40.9603 134.479 41.903 134.479 43.1987ZM131.913 44.8177C132.306 44.4787 132.504 43.9372 132.504 43.19C132.504 42.4445 132.299 41.9308 131.896 41.654C131.493 41.3754 130.772 41.237 129.737 41.237H127.284V45.3228H129.687C130.779 45.3228 131.52 45.1567 131.913 44.8177Z" fill="white"></path>
        </g>
        <path d="M46.0146 31.6334V12.7809H51.086V27.131H64.0698V31.6334H46.0146ZM67.8477 31.6334V30.5073L76.24 12.7809H81.3095L89.7035 30.5073V31.6334H85.1412L83.5085 27.9751H74.0168L72.4118 31.6334H67.8477ZM81.6488 23.7545L78.7765 17.3111L75.904 23.7545H81.6488ZM108.692 24.8788V12.7809H113.761V31.6318H108.692L98.8055 19.5322V31.6318H93.7358V12.7809H98.8055L108.692 24.8788ZM139.229 22.9379C139.229 28.0304 136.808 32.1956 128.189 32.1956H127.175C124.302 32.1956 121.43 31.9985 118.782 31.6334V12.8103C121.562 12.4097 124.367 12.2126 127.175 12.2204H128.189C136.808 12.2204 139.229 16.384 139.229 21.4764V22.9379ZM134.047 22.2063C134.047 18.9993 134.047 16.6919 127.315 16.6919C126.328 16.6919 125.118 16.7213 123.852 16.8043V27.6359C125.005 27.7113 126.16 27.7488 127.315 27.7484C134.047 27.7501 134.047 25.4133 134.047 22.2063Z" fill="white"></path>
        <path opacity="0.8" d="M32.6819 50.8453C32.1831 51.5597 32.4428 52.3952 33.2601 52.703L38.92 54.5366C39.7598 54.77 40.9632 54.4674 41.5898 53.862L45.1064 50.1429C45.6882 49.496 45.5029 48.6986 44.6925 48.3716L38.1254 45.566C37.7219 45.395 37.2719 45.3669 36.8502 45.4865C36.4285 45.6062 36.0604 45.866 35.8069 46.2234L32.6819 50.8453Z" fill="#76C1FF"></path>
        <path opacity="0.7" d="M18.3473 47.84C18.6001 47.2293 18.2296 46.3196 17.5197 45.8092L16.8531 45.311C15.1667 44.0397 13.3712 42.5124 13.3712 42.5124C12.7081 41.945 12.1333 41.7269 12.0986 42.0262C12.064 42.3237 12.3999 43.6505 12.8951 44.3666L16.4289 48.6875C17.028 49.3224 18.0893 48.4454 18.3473 47.84ZM21.6837 16.0229C21.5722 16.1948 21.4974 16.3878 21.4639 16.5899C21.4304 16.792 21.4389 16.9988 21.4889 17.1975C21.539 17.3961 21.6295 17.5824 21.7547 17.7445C21.88 17.9067 22.0374 18.0414 22.217 18.14L29.2639 22.1047C29.6327 22.3098 30.0674 22.3625 30.4744 22.2511C30.8817 22.1399 31.2289 21.8737 31.4419 21.5096L36.1169 13.6929C36.226 13.5246 36.2972 13.3346 36.3252 13.136C36.3531 12.9373 36.3374 12.735 36.2787 12.5432C36.2202 12.3514 36.1202 12.1746 35.9862 12.0254C35.8519 11.8762 35.6867 11.7581 35.5021 11.6795L28.6943 8.67314C27.8873 8.33757 26.8069 8.64027 26.2893 9.34255L21.6837 16.0229Z" fill="#76C1FF"></path>
        <path d="M28.3962 50.5291C29.1719 50.9356 30.2142 50.6831 30.7144 49.9653L33.9002 45.2724C34.0157 45.1059 34.0943 44.9167 34.131 44.7174C34.1678 44.5181 34.1616 44.3133 34.1132 44.1166C34.0649 43.9199 33.975 43.7356 33.85 43.5763C33.7249 43.4167 33.5674 43.2856 33.3878 43.1915L26.3184 39.137C26.1492 39.0283 25.9585 38.9574 25.7592 38.9296C25.56 38.9017 25.3571 38.9173 25.1645 38.9754C24.9719 39.0333 24.7942 39.1325 24.6437 39.2658C24.4932 39.3991 24.3734 39.5636 24.2927 39.7477L21.8946 44.9681C21.7285 45.3718 21.7078 45.8206 21.836 46.238C21.9642 46.6554 22.2334 47.0154 22.5976 47.2565L28.3962 50.5291Z" fill="#76C1FF"></path>
        <path opacity="0.9" d="M34.3906 41.6335C34.7683 41.8326 35.2072 41.8827 35.6201 41.7733C36.0329 41.664 36.3896 41.4036 36.6189 41.0436L41.3216 33.1213C41.4251 32.9417 41.4922 32.7433 41.5186 32.5378C41.5451 32.3323 41.5304 32.1235 41.4759 31.9236C41.4211 31.7237 41.3272 31.5366 41.1997 31.3731C41.0722 31.2096 40.9134 31.0731 40.7328 30.9711L32.8445 26.5412C32.6641 26.4398 32.4656 26.3755 32.2601 26.3516C32.0546 26.328 31.8462 26.3455 31.6477 26.403C31.4489 26.4608 31.2639 26.5575 31.1032 26.6875C30.9423 26.8176 30.8092 26.9785 30.7113 27.1605L26.4919 35.2264C26.3052 35.6138 26.2672 36.0563 26.3853 36.4697C26.5034 36.8833 26.7693 37.2392 27.1325 37.4698L34.3906 41.6335Z" fill="#76C1FF"></path>
        <path opacity="0.7" d="M17.4333 19.6916C17.6208 19.3091 17.6562 18.8699 17.5321 18.4625C17.4081 18.0551 17.1339 17.7098 16.7649 17.4965L13.7627 15.8083C13.588 15.7056 13.3935 15.6413 13.192 15.6196C12.9905 15.5978 12.7867 15.6192 12.5942 15.6822C12.4016 15.7451 12.2246 15.8483 12.075 15.9849C11.9254 16.1215 11.8066 16.2883 11.7265 16.4742L9.40816 22.1945C9.12767 23.0197 9.42894 24.1717 10.0799 24.7527L12.4676 26.8113C13.1359 27.3751 13.9549 27.1762 14.289 26.3718L17.4333 19.6916Z" fill="#76C1FF"></path>
        <path d="M29.4734 5.36287C28.9037 6.02364 29.0959 6.84181 29.9011 7.17911L36.4996 10.1145C37.2925 10.4812 38.3331 10.1837 38.8092 9.45374L42.0452 4.62427C42.5352 3.90123 42.2772 3.04154 41.4687 2.71462L35.8277 0.559338C35.0018 0.275658 33.8365 0.564526 33.2374 1.19936L29.4734 5.36287ZM8.76572 34.8344C8.94579 35.6889 9.34228 36.6299 9.64355 36.9256C9.94482 37.2249 10.9369 37.3357 11.1204 36.4829C11.1204 36.4829 11.697 33.7966 12.4658 31.3404L12.6337 30.8024C12.8415 30.1848 12.464 29.2196 11.7957 28.661L9.54486 26.7478C8.88865 26.1718 8.28266 25.9936 8.20128 26.3534C8.11471 26.7132 7.95542 28.3512 8.0091 29.2248L8.76572 34.8344ZM21.1661 19.9758C20.9882 19.8734 20.7911 19.8088 20.5872 19.7857C20.3832 19.7626 20.1766 19.7816 19.9803 19.8416C19.784 19.9018 19.6022 20.0013 19.4461 20.1346C19.2899 20.2677 19.1629 20.4316 19.0728 20.6158L15.8351 27.6299C15.5078 28.4379 15.8057 29.5363 16.4982 30.0656L22.6932 34.5663C22.8522 34.6861 23.036 34.769 23.2312 34.8088C23.4264 34.8485 23.628 34.844 23.8213 34.7958C24.0145 34.7474 24.1945 34.6567 24.3481 34.5298C24.5016 34.403 24.6248 34.2434 24.7086 34.0629L28.8657 26.1267C29.0627 25.7529 29.1066 25.3169 28.9879 24.9114C28.8694 24.5056 28.5977 24.1619 28.2302 23.9525L21.1661 19.9758Z" fill="#76C1FF"></path>
        <path opacity="0.7" d="M18.2119 44.2336C18.9045 44.7629 19.7633 44.5432 20.1217 43.7459L22.5006 38.5843C22.8729 37.7954 22.5907 36.7421 21.8739 36.2422L15.8607 31.9057C15.1664 31.3764 14.4028 31.6306 14.1656 32.4714L12.7562 38.0049C12.5848 38.8593 12.9883 40.0235 13.6514 40.5907L18.2119 44.2336Z" fill="#76C1FF"></path>
        <path d="M14.2454 11.8346C14.1336 12.0062 14.0585 12.199 14.0247 12.4009C13.991 12.6028 13.9993 12.8096 14.0492 13.0082C14.0991 13.2067 14.1895 13.3929 14.3147 13.555C14.4399 13.717 14.5973 13.8515 14.7769 13.9501L17.8225 15.666C18.1971 15.871 18.6355 15.927 19.0497 15.8227C19.4639 15.7185 19.8233 15.4617 20.056 15.1038L24.4936 8.64144C25.0079 7.93569 24.7568 7.11234 23.9379 6.80962L20.6759 5.63512C19.85 5.35144 18.7332 5.6801 18.1913 6.36508L14.2454 11.8346ZM42.3618 1.2675L42.8639 1.48198C43.4301 1.73625 44.0967 1.66189 44.3461 1.3142C44.5971 0.96478 44.5591 -0.0920939 43.702 -0.26507L37.7614 -0.996756C36.8905 -1.03308 36.8508 -0.82378 37.6731 -0.534911C37.6731 -0.534911 40.2271 0.359372 42.3618 1.2675ZM55.7924 7.77309C55.6158 8.2263 56.0365 9.03409 56.7274 9.56859L61.0923 13.2824C61.738 13.8722 62.2938 14.2112 62.3301 14.0365C62.3665 13.8618 62.0566 12.8205 61.558 12.1027L57.5393 7.25936C56.9283 6.63319 55.9707 7.3199 55.7924 7.77309Z" fill="#76C1FF"></path>
        <path opacity="0.5" d="M22.4162 3.05907C21.6422 3.46385 21.682 4.03121 22.5079 4.32181L25.1431 5.29392C25.9621 5.60009 27.0928 5.30776 27.6571 4.64007L31.2515 0.604561C31.8436 -0.0354481 32.2957 -0.568212 32.2505 -0.58205C32.2091 -0.592428 31.4056 -0.429832 30.566 -0.191126L22.4162 3.05907Z" fill="#76C1FF"></path>
        <path opacity="0.3" d="M46.344 2.15553C46.0652 2.54473 46.4738 3.18474 47.253 3.5774C48.9979 4.46784 50.6989 5.44166 52.3502 6.4955C53.0843 6.96772 53.8375 6.96253 54.0227 6.48512C54.2098 6.0077 54.1146 4.31947 53.4011 3.81783C53.4011 3.81783 52.8488 3.42864 51.8516 2.85262C50.3936 2.00852 48.8267 1.35639 48.8267 1.35639C48.0235 1.0191 46.6245 1.76981 46.344 2.15553Z" fill="#76C1FF"></path>
        <path opacity="0.7" d="M28.0619 53.6409C28.4896 53.0666 28.2055 52.2658 27.4317 51.8626L21.9431 48.7803C21.202 48.3219 20.3692 48.4844 20.0956 49.1452C19.8186 49.8059 19.8065 51.6862 20.5112 52.1999C20.5112 52.1999 21.363 52.8123 22.5283 53.4886C23.8805 54.2705 25.2241 54.8465 25.2241 54.8465C26.024 55.1908 27.6342 54.2169 28.0619 53.6409ZM38.4745 56.6559C38.7481 56.4311 38.2892 56.0435 37.453 55.7909L32.2934 54.0508C31.4779 53.7359 30.4893 53.9176 30.0979 54.4469C29.7032 54.9849 29.4919 56.3411 30.3456 56.5278L35.9294 57.3183C36.8003 57.3736 38.1992 56.8773 38.4745 56.6559Z" fill="#76C1FF"></path>
        <path d="M49.5796 50.1367C48.7501 49.8651 47.7062 50.0865 47.2629 50.628L46.8665 51.0881C45.9015 52.1966 44.8989 53.2719 43.8607 54.3124C43.2425 54.9246 43.2842 55.518 43.9593 55.62C44.6328 55.722 47.0985 55.6633 47.9139 55.3466L50.5006 54.1809C51.278 53.7831 52.2165 53.1654 52.5888 52.8126C52.9593 52.4614 53.2657 51.2557 52.4278 51.012L49.5796 50.1367Z" fill="#76C1FF"></path>
        <path opacity="0.7" d="M53.8358 49.4868C54.6773 49.722 55.8149 49.3588 56.3637 48.6825L60.043 43.5693C60.1576 43.4013 60.2354 43.2112 60.2716 43.0113C60.3078 42.8115 60.3016 42.6062 60.2532 42.4087C60.205 42.2115 60.1156 42.0264 59.9911 41.8657C59.8666 41.7052 59.7097 41.5725 59.5306 41.4763L56.5195 39.8002C56.1472 39.5964 55.7105 39.5437 55.3002 39.6528C54.8898 39.762 54.5373 40.0248 54.3155 40.3865L50.2 46.8022C49.6943 47.5132 49.9627 48.3123 50.7938 48.5786L53.8358 49.4868Z" fill="#76C1FF"></path>
      </g>
    </g>
  </g>
  <defs>
    <clipPath id="clip0_1512_41399">
      <rect width="150" height="60" fill="white"></rect>
    </clipPath>
    <clipPath id="clip1_1512_41399">
      <rect width="135" height="60" fill="white" transform="translate(8 -1)"></rect>
    </clipPath>
  </defs>
</svg>
